<?xml version="1.0" encoding="UTF-8"?> <!-- Generator: Adobe Illustrator 22.1.0, SVG Export Plug-In . SVG Version: 6.00 Build 0) --> <svg xmlns="http://www.w3.org/2000/svg" xmlns:xlink="http://www.w3.org/1999/xlink" id="Layer_1" x="0px" y="0px" viewBox="0 0 1000 1000" style="enable-background:new 0 0 1000 1000;" xml:space="preserve"> <style type="text/css"> .st0{fill:#FFFFFF;} .st1{fill:#B9D2F5;} .st2{fill:#E3EDFF;} .st3{fill:#445259;} .st4{fill:#217CFF;} .st5{fill:#FF9DB2;} .st6{fill:#75DEA0;} </style> <rect class="st0" width="1000" height="1000"></rect> <g> <polygon class="st1" points="581.5,708.8 581.5,736.6 553.6,732.4 553.6,712.9 "></polygon> <circle class="st1" cx="630.3" cy="722.7" r="62.7"></circle> <polygon class="st1" points="616.3,771.5 644.2,771.5 640,799.3 620.5,799.3 "></polygon> <polygon class="st1" points="679.1,708.8 679.1,736.6 706.9,732.4 706.9,712.9 "></polygon> <polygon class="st1" points="585.9,747.4 605.6,767 583,783.8 569.2,770 "></polygon> <polygon class="st1" points="674.6,747.4 654.9,767 677.6,783.8 691.4,770 "></polygon> </g> <g> <circle class="st1" cx="754" cy="308.7" r="69.6"></circle> <polygon class="st1" points="767.9,253 740.1,253 744.2,225.1 763.7,225.1 "></polygon> <polygon class="st1" points="803.1,279.1 783.4,259.4 806.1,242.7 819.9,256.5 "></polygon> <polygon class="st1" points="783.4,357.7 803.1,338 819.9,360.7 806.1,374.5 "></polygon> <polygon class="st1" points="704.8,279.1 724.5,259.4 701.9,242.7 688.1,256.5 "></polygon> <polygon class="st1" points="698.4,322.5 698.4,294.6 670.6,298.8 670.6,318.3 "></polygon> <polygon class="st1" points="809.6,322.5 809.6,294.6 837.4,298.8 837.4,318.3 "></polygon> </g> <polygon points="756.2,364.1 728.3,364.1 732.5,392 752,392 "></polygon> <circle class="st2" cx="754" cy="308.7" r="48.1"></circle> <circle class="st0" cx="754" cy="308.7" r="27.9"></circle> <polygon points="712.8,357.7 693.1,338 676.4,360.7 690.2,374.5 "></polygon> <polygon points="616.3,667.9 644.2,667.9 640,640.1 620.5,640.1 "></polygon> <circle class="st2" cx="630.3" cy="722.7" r="48.1"></circle> <circle class="st0" cx="630.3" cy="722.7" r="27.9"></circle> <path class="st2" d="M300.6,226c10.7-11.1,25.6-18,42-18c21.9,0,41,12.2,51.1,30.3c8.8-3.9,18.6-6.1,28.9-6.1 c39.5,0,71.5,32.3,71.5,72.1c0,39.8-32,72.1-71.5,72.1c-4.7,0-9.4-0.5-14.1-1.4c-9,16-26,26.8-45.6,26.8c-8.2,0-16-1.9-22.9-5.3 c-9.1,21.3-30.2,36.3-54.9,36.3c-25.7,0-47.5-16.2-55.9-39c-3.7,0.8-7.5,1.2-11.4,1.2c-30.6,0-55.3-25-55.3-55.9 c0-20.7,11.1-38.8,27.7-48.4c-3.4-7.8-5.3-16.5-5.3-25.6c0-35.5,28.8-64.3,64.4-64.3C270.3,200.7,288.9,210.6,300.6,226"></path> <path class="st3" d="M775.7,308.8l-501.5-0.2l-0.2,355.2l446.3,0.2l55.1,0L775.7,308.8L775.7,308.8z"></path> <path class="st0" d="M771.5,313l-493.2-0.2l-0.2,346.8l493.2,0.2l0.2-339.8L771.5,313z"></path> <path class="st3" d="M810.4,660l-486.1-0.2l-0.2,25.8l468,0.2L810.4,660L810.4,660z"></path> <path class="st0" d="M802.7,664.2l-474.4-0.2l-0.2,17.4l461.9,0.2L802.7,664.2z"></path> <rect x="278.1" y="312.8" class="st4" width="493.4" height="34.7"></rect> <rect x="292.1" y="464.2" class="st2" width="288.7" height="4.2"></rect> <g> <path class="st3" d="M525.8,500.3l-348.2-0.2l-0.2,278.6l299.2,0.2l49,0L525.8,500.3L525.8,500.3z"></path> <path class="st0" d="M521.6,504.5l-339.8-0.2l-0.2,270.2l339.8,0.2l0.2-263.2V504.5z"></path> <rect x="181.7" y="504.3" class="st4" width="339.9" height="34.6"></rect> <rect x="195.5" y="582.1" class="st4" width="211.7" height="4.2"></rect> <rect x="351.6" y="645.8" class="st1" width="142.1" height="4.2"></rect> <rect x="245.7" y="645.8" class="st4" width="98.9" height="4.2"></rect> <rect x="195.2" y="645.8" class="st4" width="43.9" height="4.2"></rect> <rect x="195.5" y="599.9" class="st1" width="298.2" height="4.2"></rect> <rect x="465.9" y="710.1" class="st5" width="27.9" height="4.2"></rect> <rect x="351.7" y="710.1" class="st4" width="100.3" height="4.2"></rect> <rect x="195.5" y="727.8" class="st1" width="298.2" height="4.2"></rect> <rect x="195.5" y="664" class="st1" width="298.2" height="4.2"></rect> <circle class="st1" cx="202.4" cy="521.5" r="7"></circle> <circle class="st1" cx="224.7" cy="521.5" r="7"></circle> <circle class="st1" cx="247" cy="521.5" r="7"></circle> </g> <rect x="292.1" y="482.3" class="st2" width="288.7" height="4.2"></rect> <rect x="525.8" y="500.3" class="st2" width="55" height="4.2"></rect> <rect x="525.8" y="518.5" class="st2" width="55" height="4.2"></rect> <rect x="525.8" y="536.6" class="st2" width="55" height="4.2"></rect> <rect x="525.8" y="554.7" class="st2" width="55" height="4.2"></rect> <rect x="525.5" y="572.8" class="st2" width="55.2" height="4.2"></rect> <rect x="525.8" y="590.9" class="st2" width="55" height="4.2"></rect> <rect x="566.9" y="609" class="st2" width="13.9" height="4.2"></rect> <rect x="573.5" y="627.1" class="st2" width="7.3" height="4.2"></rect> <rect x="552.6" y="627.1" class="st2" width="13.9" height="4.2"></rect> <rect x="525.7" y="609" class="st2" width="33.9" height="4.2"></rect> <rect x="425.4" y="380.4" class="st2" width="54.8" height="4.2"></rect> <rect x="484.4" y="380.4" class="st2" width="4.2" height="4.2"></rect> <rect x="593.2" y="380.4" class="st2" width="27" height="4.2"></rect> <rect x="624.3" y="380.4" class="st2" width="4.2" height="4.2"></rect> <rect x="656.3" y="380.4" class="st2" width="20" height="4.2"></rect> <rect x="680.5" y="380.4" class="st2" width="4.2" height="4.2"></rect> <rect x="712.5" y="380.4" class="st2" width="13" height="4.2"></rect> <rect x="729.7" y="380.4" class="st2" width="4.2" height="4.2"></rect> <rect x="516.3" y="380.4" class="st2" width="40.9" height="4.2"></rect> <rect x="561.4" y="380.4" class="st2" width="4.2" height="4.2"></rect> <rect x="525.8" y="627.1" class="st2" width="20.1" height="4.2"></rect> <g> <path class="st4" d="M292.3,387c-0.1,0.2,0,0.3,0.1,0.3c0.3,0.2,0.5,0.3,0.8,0.5c1.4,0.8,2.8,1,4.2,1c2.9,0,4.6-1.5,4.6-4v0 c0-2.3-2-3.1-3.9-3.7l-0.2-0.1c-1.4-0.5-2.6-0.9-2.6-1.8v0c0-0.8,0.7-1.4,1.8-1.4c1.2,0,2.7,0.4,3.6,0.9c0,0,0.3,0.2,0.4-0.1 c0.1-0.1,0.5-1.4,0.6-1.6c0.1-0.2,0-0.3-0.1-0.3c-1.1-0.7-2.6-1.1-4.1-1.1l-0.3,0c-2.6,0-4.5,1.6-4.5,3.9v0c0,2.4,2,3.2,3.9,3.7 l0.3,0.1c1.4,0.4,2.6,0.8,2.6,1.8v0c0,0.9-0.8,1.5-2,1.5c-0.5,0-2,0-3.7-1.1c-0.2-0.1-0.3-0.2-0.5-0.3c-0.1-0.1-0.3-0.1-0.4,0.1 L292.3,387L292.3,387z M334.3,387c-0.1,0.2,0,0.3,0.1,0.3c0.3,0.2,0.5,0.3,0.8,0.5c1.4,0.8,2.8,1,4.2,1c2.9,0,4.6-1.5,4.6-4v0 c0-2.3-2-3.1-3.9-3.7l-0.2-0.1c-1.4-0.5-2.6-0.9-2.6-1.8v0c0-0.8,0.7-1.4,1.8-1.4c1.2,0,2.7,0.4,3.6,0.9c0,0,0.3,0.2,0.4-0.1 c0.1-0.1,0.5-1.4,0.6-1.6c0.1-0.2,0-0.3-0.1-0.3c-1.1-0.7-2.6-1.1-4.1-1.1l-0.3,0c-2.6,0-4.5,1.6-4.5,3.9v0c0,2.4,2,3.2,3.9,3.7 l0.3,0.1c1.4,0.4,2.6,0.8,2.6,1.8v0c0,0.9-0.8,1.5-2,1.5c-0.5,0-2,0-3.7-1.1c-0.2-0.1-0.3-0.2-0.5-0.3c-0.1,0-0.3-0.1-0.4,0.1 L334.3,387L334.3,387z M363,382.2c0,1.4-0.3,2.5-0.8,3.3c-0.5,0.8-1.3,1.1-2.3,1.1c-1.1,0-1.8-0.4-2.3-1.1 c-0.5-0.8-0.8-1.9-0.8-3.3c0-1.4,0.3-2.5,0.8-3.2c0.5-0.8,1.3-1.1,2.3-1.1c1.1,0,1.8,0.4,2.3,1.1C362.7,379.7,363,380.8,363,382.2 M365.4,379.6c-0.2-0.8-0.6-1.5-1.1-2.1c-0.5-0.6-1.1-1.1-1.8-1.4c-0.7-0.3-1.6-0.5-2.6-0.5c-1,0-1.8,0.2-2.6,0.5 c-0.7,0.3-1.4,0.8-1.8,1.4c-0.5,0.6-0.9,1.3-1.1,2.1c-0.2,0.8-0.4,1.7-0.4,2.6c0,0.9,0.1,1.8,0.4,2.6c0.2,0.8,0.6,1.5,1.1,2.1 c0.5,0.6,1.1,1.1,1.8,1.4c0.7,0.3,1.6,0.5,2.6,0.5c1,0,1.8-0.2,2.6-0.5c0.7-0.3,1.4-0.8,1.8-1.4c0.5-0.6,0.9-1.3,1.1-2.1 c0.2-0.8,0.4-1.7,0.4-2.6C365.7,381.3,365.6,380.4,365.4,379.6 M385,386.2c-0.1-0.2-0.3-0.1-0.3-0.1c-0.3,0.1-0.7,0.3-1.1,0.3 c-0.4,0.1-0.8,0.1-1.3,0.1c-1.2,0-2.1-0.3-2.7-1c-0.7-0.7-1-1.8-1-3.3c0-1.4,0.3-2.4,0.9-3.2c0.6-0.8,1.5-1.2,2.7-1.2 c1,0,1.7,0.1,2.5,0.4c0,0,0.2,0.1,0.3-0.2c0.2-0.6,0.4-1,0.6-1.6c0.1-0.2-0.1-0.3-0.1-0.3c-0.3-0.1-1-0.3-1.6-0.4 c-0.5-0.1-1.1-0.1-1.8-0.1c-1,0-1.9,0.2-2.7,0.5c-0.8,0.3-1.4,0.8-1.9,1.4c-0.5,0.6-0.9,1.3-1.2,2.1c-0.3,0.8-0.4,1.7-0.4,2.6 c0,2,0.5,3.6,1.6,4.8c1.1,1.2,2.7,1.8,4.7,1.8c1.2,0,2.5-0.2,3.4-0.6c0,0,0.2-0.1,0.1-0.3L385,386.2L385,386.2z M389.2,380.9 c0.1-0.8,0.3-1.4,0.7-1.9c0.5-0.8,1.3-1.2,2.3-1.2s1.8,0.4,2.3,1.2c0.3,0.5,0.5,1.2,0.5,1.9H389.2L389.2,380.9z M397.3,379.2 c-0.2-0.8-0.7-1.5-1-1.9c-0.5-0.6-1-1-1.5-1.2c-0.7-0.3-1.5-0.5-2.3-0.5c-1,0-1.9,0.2-2.7,0.5c-0.7,0.4-1.4,0.8-1.9,1.4 c-0.5,0.6-0.9,1.3-1.1,2.1c-0.2,0.8-0.4,1.7-0.4,2.6c0,0.9,0.1,1.8,0.4,2.6c0.2,0.8,0.6,1.5,1.2,2.1c0.5,0.6,1.2,1,2,1.4 c0.8,0.3,1.8,0.5,2.9,0.5c2.3,0,3.6-0.5,4.1-0.8c0.1,0,0.2-0.1,0.1-0.4l-0.5-1.5c-0.1-0.2-0.3-0.1-0.3-0.1 c-0.6,0.2-1.4,0.6-3.3,0.6c-1.3,0-2.2-0.4-2.8-1c-0.6-0.6-0.9-1.5-0.9-2.7l8.1,0c0,0,0.2,0,0.2-0.2 C397.5,382.6,397.8,381,397.3,379.2 M324.3,380.9c0.1-0.8,0.3-1.4,0.7-1.9c0.5-0.8,1.3-1.2,2.3-1.2s1.8,0.4,2.3,1.2 c0.3,0.5,0.5,1.2,0.5,1.9H324.3z M332.3,379.2c-0.2-0.8-0.7-1.5-1-1.9c-0.5-0.6-1-1-1.5-1.2c-0.7-0.3-1.5-0.5-2.3-0.5 c-1,0-1.9,0.2-2.7,0.5c-0.7,0.4-1.4,0.8-1.9,1.4c-0.5,0.6-0.9,1.3-1.1,2.1c-0.2,0.8-0.4,1.7-0.4,2.6c0,0.9,0.1,1.8,0.4,2.6 c0.2,0.8,0.6,1.5,1.2,2.1c0.5,0.6,1.2,1,2,1.4c0.8,0.3,1.8,0.5,2.9,0.5c2.3,0,3.6-0.5,4.1-0.8c0.1,0,0.2-0.1,0.1-0.4l-0.5-1.5 c-0.1-0.2-0.3-0.1-0.3-0.1c-0.6,0.2-1.4,0.6-3.3,0.6c-1.3,0-2.2-0.4-2.8-1c-0.6-0.6-0.9-1.5-0.9-2.7l8.1,0c0,0,0.2,0,0.2-0.2 C332.6,382.6,332.9,381,332.3,379.2 M306.8,386.2c-0.3-0.3-0.4-0.3-0.5-0.5c-0.2-0.2-0.2-0.6-0.2-1.1c0-0.7,0.2-1.2,0.7-1.6 c0,0,0.7-0.6,2.4-0.6c1.2,0,2.2,0.2,2.2,0.2v3.7h0c0,0-1,0.2-2.2,0.3C307.5,386.7,306.8,386.2,306.8,386.2 M310,380.5 c-0.3,0-0.8,0-1.3,0c-0.7,0-1.4,0.1-2,0.3c-0.6,0.2-1.2,0.4-1.7,0.8c-0.5,0.3-0.9,0.8-1.2,1.3c-0.3,0.5-0.4,1.2-0.4,1.9 c0,0.7,0.1,1.3,0.4,1.9c0.2,0.5,0.6,0.9,1.1,1.3c0.5,0.3,1,0.6,1.7,0.7c0.6,0.1,1.4,0.2,2.1,0.2c0.8,0,1.7-0.1,2.5-0.2 c0.8-0.1,1.8-0.3,2-0.4c0.2,0,0.4-0.1,0.6-0.1c0.2,0,0.2-0.3,0.2-0.3l0-7.4c0-1.6-0.4-2.8-1.3-3.6c-0.9-0.7-2.1-1.1-3.7-1.1 c-0.6,0-1.6,0.1-2.2,0.2c0,0-1.8,0.3-2.5,0.9c0,0-0.2,0.1-0.1,0.3l0.6,1.5c0.1,0.2,0.3,0.1,0.3,0.1s0.1,0,0.1-0.1 c1.6-0.8,3.5-0.8,3.5-0.8c0.9,0,1.5,0.2,2,0.5c0.4,0.3,0.7,0.9,0.7,1.9v0.3C310.6,380.5,310,380.5,310,380.5 M375.4,376.3 c0.1-0.2-0.1-0.3-0.1-0.3c-0.1-0.1-0.8-0.2-1.4-0.2c-1-0.1-1.6,0.1-2.1,0.3c-0.5,0.2-1.1,0.6-1.4,1v-1c0-0.1-0.1-0.2-0.2-0.2h-2.1 c-0.1,0-0.2,0.1-0.2,0.2v12.1c0,0.1,0.1,0.2,0.2,0.2h2.1c0.1,0,0.2-0.1,0.2-0.2v-6c0-0.8,0.1-1.6,0.3-2.1c0.2-0.5,0.4-0.9,0.7-1.2 c0.3-0.3,0.6-0.5,1-0.6c0.4-0.1,0.8-0.2,1.1-0.2c0.4,0,0.9,0.1,0.9,0.1c0.2,0,0.2-0.1,0.3-0.2C374.9,377.6,375.3,376.5,375.4,376.3 "></path> <path class="st4" d="M355.4,370.7c-0.3-0.1-0.5-0.1-0.8-0.2c-0.3-0.1-0.7-0.1-1.1-0.1c-1.5,0-2.6,0.4-3.4,1.2 c-0.8,0.8-1.4,2-1.6,3.7l-0.1,0.5h-1.8c0,0-0.2,0-0.3,0.2l-0.3,1.7c0,0.2,0,0.3,0.3,0.3h1.8l-1.8,10.1c-0.1,0.8-0.3,1.5-0.5,2 c-0.2,0.5-0.4,0.9-0.6,1.2c-0.2,0.3-0.4,0.5-0.7,0.6c-0.3,0.1-0.6,0.1-1,0.1c-0.2,0-0.5,0-0.6-0.1c-0.2,0-0.3-0.1-0.4-0.1 c0,0-0.2-0.1-0.3,0.1c-0.1,0.2-0.5,1.5-0.6,1.6c-0.1,0.2,0,0.3,0.1,0.3c0.2,0.1,0.4,0.1,0.7,0.2c0.5,0.1,0.8,0.1,1.2,0.1 c0.7,0,1.4-0.1,2-0.3c0.6-0.2,1.1-0.6,1.5-1c0.5-0.5,0.8-1.1,1.1-1.8c0.3-0.7,0.5-1.7,0.7-2.7l1.8-10.3h2.7c0,0,0.2,0,0.3-0.2 l0.3-1.7c0-0.2,0-0.3-0.3-0.3h-2.6c0-0.1,0.1-1,0.4-1.8c0.1-0.4,0.4-0.7,0.6-0.9c0.2-0.2,0.4-0.3,0.7-0.4c0.3-0.1,0.5-0.1,0.9-0.1 c0.2,0,0.5,0,0.7,0.1c0.3,0.1,0.3,0.1,0.4,0.1c0.3,0.1,0.3,0,0.4-0.1l0.6-1.7C355.6,370.8,355.4,370.7,355.4,370.7 M319.2,388.2 c0,0.1-0.1,0.2-0.2,0.2h-2.1c-0.1,0-0.2-0.1-0.2-0.2v-17.3c0-0.1,0.1-0.2,0.2-0.2h2.1c0.1,0,0.2,0.1,0.2,0.2V388.2z"></path> </g> <polygon class="st6" points="347.8,436.3 292.1,436.3 292.1,416.8 347.8,416.8 354.8,426.6 "></polygon> <rect x="694.9" y="416.8" class="st4" width="62.7" height="19.5"></rect> <rect x="608.6" y="450.2" class="st2" width="149" height="181.7"></rect> <polygon class="st6" points="407.7,436.3 352,436.3 358.9,426.6 352,416.8 407.7,416.8 414.7,426.6 "></polygon> <polygon class="st4" points="467.7,436.3 412,436.3 419,426.6 412,416.8 467.7,416.8 474.7,426.6 "></polygon> <polygon class="st4" points="527.6,436.3 471.9,436.3 478.8,426.6 471.9,416.8 527.6,416.8 534.6,426.6 "></polygon> <polygon class="st1" points="587.6,436.3 531.9,436.3 538.8,426.6 531.9,416.8 587.6,416.8 594.6,426.6 "></polygon> <rect x="622.5" y="478.1" class="st5" width="16.7" height="16.7"></rect> <rect x="646.2" y="484.4" class="st1" width="97.5" height="4.2"></rect> <rect x="622.5" y="515.7" class="st1" width="16.7" height="16.7"></rect> <rect x="646.2" y="522" class="st1" width="83.6" height="4.2"></rect> <rect x="622.5" y="553.3" class="st1" width="16.7" height="16.7"></rect> <rect x="646.2" y="559.6" class="st1" width="97.5" height="4.2"></rect> <rect x="622.5" y="590.9" class="st1" width="16.7" height="16.7"></rect> <rect x="646.2" y="597.2" class="st1" width="55.7" height="4.2"></rect> </svg> 